<svg width="60" height="46" viewBox="0 0 60 46" fill="none" xmlns="http://www.w3.org/2000/svg">
<path d="M20 8H16V12H20V8Z" fill="#E6241D"/>
<path d="M24 4H20V8H24V4Z" fill="#E6241D"/>
<path d="M12 8H8V12H12V8Z" fill="#E6241D"/>
<path d="M12 16H14.76L16 14.76V12H12V16Z" fill="#E6241D"/>
<path d="M52.24 24H56V20H52V23.76L52.24 24Z" fill="#E6241D"/>
<path d="M32 4H28V8H32V4Z" fill="#E6241D"/>
<path d="M32 26.76L33.24 28H35.76L36 27.76V24H32V26.76Z" fill="#E6241D"/>
<path d="M4 24H6.76L8 22.76V20H4V24Z" fill="#E6241D"/>
<path d="M16 4H12V8H16V4Z" fill="#E6241D"/>
<path d="M56 12H52V16H56V12Z" fill="#E6241D"/>
<path d="M8 20H10.76L12 18.76V16H8V20Z" fill="#E6241D"/>
<path d="M8 4H4V8H8V4Z" fill="#E6241D"/>
<path d="M8 12H4V16H8V12Z" fill="#E6241D"/>
<path d="M48 19.76L48.24 20H52V16H48V19.76Z" fill="#E6241D"/>
<path d="M28 20V22.76L29.24 24H32V20H28Z" fill="#E6241D"/>
<path d="M40 20H43.76L44 19.76V16H40V20Z" fill="#E6241D"/>
<path d="M36 24H39.76L40 23.76V20H36V24Z" fill="#E6241D"/>
<path d="M20 12V14.76L21.24 16H24V12H20Z" fill="#E6241D"/>
<path d="M24 16V18.76L25.24 20H28V16H24Z" fill="#E6241D"/>
<path d="M56 4H52V8H56V4Z" fill="#E6241D"/>
<path d="M48 12H44V16H48V12Z" fill="#E6241D"/>
<path d="M52 8H48V12H52V8Z" fill="#E6241D"/>
<path d="M36 16H32V20H36V16Z" fill="#E6241D"/>
<path d="M44 8H40V12H44V8Z" fill="#E6241D"/>
<path d="M48 4H44V8H48V4Z" fill="#E6241D"/>
<path d="M40 4H36V8H40V4Z" fill="#E6241D"/>
<path d="M32 12H28V16H32V12Z" fill="#E6241D"/>
<path d="M36 8H32V12H36V8Z" fill="#E6241D"/>
<path d="M28 8H24V12H28V8Z" fill="#E6241D"/>
<path d="M40 12H36V16H40V12Z" fill="#E6241D"/>
<path d="M0 0V46H60V0H0ZM46 20.59L34.5 32.09L18 15.59L2 31.59V2H58V32.59L46 20.59Z" fill="#E6241D"/>
</svg>
