<svg width="701" height="699" viewBox="0 0 701 699" fill="none" xmlns="http://www.w3.org/2000/svg">
<path d="M275 525C413.071 525 525 413.071 525 275C525 136.929 413.071 25 275 25C136.929 25 25 136.929 25 275C25 413.071 136.929 525 275 525Z" stroke="#E74C3C" stroke-width="50" stroke-miterlimit="10" stroke-linecap="round" stroke-linejoin="round"/>
<path d="M450 450L602.5 602.5" stroke="#E74C3C" stroke-width="50" stroke-miterlimit="10" stroke-linecap="round" stroke-linejoin="round"/>
<path d="M350 525L495 672.5" stroke="#E74C3C" stroke-width="50" stroke-miterlimit="10" stroke-linecap="round" stroke-linejoin="round"/>
<path d="M525 350L672.5 495" stroke="#E74C3C" stroke-width="50" stroke-miterlimit="10" stroke-linecap="round" stroke-linejoin="round"/>
<path d="M510 190C542.5 202.5 575 222.5 602.5 247.5C700 345 700 502.5 602.5 600C505 697.5 347.5 697.5 250 600C222.5 572.5 205 542.5 192.5 507.5" stroke="#E74C3C" stroke-width="50" stroke-miterlimit="10" stroke-linecap="round" stroke-linejoin="round"/>
</svg>
