<svg width="20" height="12" viewBox="0 0 20 12" fill="none" xmlns="http://www.w3.org/2000/svg">
<path d="M9.31888 6.09084C9.54188 6.23084 9.79088 6.32584 10.0509 6.36884C10.3039 6.36484 10.5469 6.26584 10.7299 6.09084L16.4619 0.573838C16.8524 0.206943 17.3676 0.00186873 17.9034 1.27087e-05C18.4392 -0.00184331 18.9558 0.199657 19.3489 0.563838L19.3789 0.591838C19.5741 0.774466 19.73 0.995132 19.8367 1.24025C19.9435 1.48537 19.999 1.74975 19.9997 2.01711C20.0005 2.28447 19.9465 2.54916 19.8411 2.79487C19.7357 3.04058 19.5811 3.26212 19.3869 3.44584L10.7739 11.7128C10.5769 11.895 10.3192 11.9973 10.0509 11.9998C9.77625 11.9558 9.51293 11.8583 9.27588 11.7128L0.610881 3.44584C0.416893 3.26185 0.262622 3.04009 0.157566 2.79423C0.0525098 2.54837 -0.00110684 2.28361 1.7318e-05 2.01624C0.00114148 1.74888 0.0569827 1.48458 0.164102 1.23961C0.271222 0.994641 0.427353 0.774192 0.622881 0.591838L0.658881 0.563838C1.05452 0.199648 1.57311 -0.00167139 2.11084 0.000182863C2.64858 0.00203712 3.16577 0.206928 3.55888 0.573838L9.31888 6.09084Z" fill="#3BEDB2"/>
</svg>
