<svg width="31" height="40" viewBox="0 0 31 40" fill="none" xmlns="http://www.w3.org/2000/svg">
<path d="M29.5161 19.5041C29.0184 19.0064 28.3963 18.7161 27.7742 18.6331C27.8986 17.6792 27.6083 16.7253 26.9032 15.9788C26.447 15.5225 25.8249 15.2322 25.2028 15.1078C25.2442 14.9419 25.2442 14.8175 25.2442 14.6516C25.2442 13.8221 24.9124 12.9926 24.3318 12.412C24.0415 12.1216 23.7097 11.9143 23.3364 11.7484L26.6958 8.38896C27.9401 7.14473 27.9401 5.15396 26.6958 3.90973C25.4516 2.66551 23.4608 2.66551 22.2166 3.90973L10.4794 15.647C10.0232 14.7345 9.27661 13.4488 8.3227 12.2875C7.70059 11.4995 6.8711 10.753 5.87572 10.0479C4.42412 9.01107 2.5163 9.01107 1.10617 10.0479C-0.0551111 10.8774 -0.345431 12.412 0.442581 13.6147L2.1845 16.3106C3.09694 17.7207 3.55316 19.3797 3.51168 21.0801L3.38726 26.2229C3.38726 26.7206 3.17989 27.1768 2.80662 27.5501L0.442581 29.9141C0.0693122 30.2874 0.0693122 30.9095 0.442581 31.3242C0.649953 31.5316 0.898799 31.6146 1.14764 31.6146C1.39649 31.6146 1.64534 31.5316 1.85271 31.3242L4.21675 28.9602C4.92181 28.2551 5.33655 27.3012 5.37803 26.2644L5.50245 21.1216C5.54392 19.0479 4.96328 16.9741 3.84348 15.2322L2.10155 12.5364C1.89418 12.2461 1.97713 11.8728 2.26745 11.6654C3.01399 11.1263 4.00937 11.1263 4.71444 11.6654C5.54392 12.2461 6.24899 12.9097 6.74668 13.5318C8.23976 15.3981 9.23514 17.7207 9.23514 17.7207C9.35956 18.011 9.64988 18.2598 9.9402 18.3013C10.272 18.3843 10.6038 18.2598 10.8526 18.011L23.5853 5.27839C24.0415 4.82217 24.788 4.82217 25.2442 5.27839C25.7005 5.7346 25.7005 6.48114 25.2442 6.93736L15.5807 16.7253C14.7927 17.5133 14.5024 18.5916 14.7098 19.587C15.6222 23.8174 12.3872 25.7667 12.2628 25.8496C11.8065 26.14 11.6407 26.7206 11.8895 27.2183C12.0554 27.5501 12.3872 27.716 12.7605 27.716C12.9264 27.716 13.0923 27.6745 13.2582 27.5916C14.5024 26.8865 16.4517 24.9372 16.8249 21.9511C17.1567 22.0755 17.4885 22.117 17.8618 22.117C18.0277 22.117 18.1936 22.0755 18.318 22.0755C18.4424 22.6976 18.7328 23.2782 19.189 23.7759C19.8111 24.398 20.5991 24.6884 21.4286 24.6884C21.553 24.6884 21.6774 24.6469 21.8433 24.6469C21.9263 25.269 22.2166 25.8911 22.7143 26.3888C23.0461 26.7206 23.4608 26.9694 23.8756 27.1353C22.2166 29.4579 20.2258 31.5731 18.7328 33.0662C17.4056 34.3519 15.5807 34.891 13.7558 34.4763L12.6775 34.2274C12.3457 34.1445 12.0139 34.2689 11.7651 34.4763L8.44713 37.7942C8.07386 38.1675 8.07386 38.7896 8.44713 39.2044C8.6545 39.4117 8.90335 39.4947 9.15219 39.4947C9.40104 39.4947 9.64988 39.4117 9.85726 39.2044L12.7605 36.3012L13.2996 36.4256C15.7466 37.0062 18.318 36.2597 20.1014 34.5178C21.9678 32.6929 24.4977 29.9556 26.364 27.0109C26.6544 26.845 26.9447 26.6791 27.1521 26.4303L29.5576 24.0248C30.1382 23.4441 30.47 22.6146 30.47 21.7852C30.47 20.9142 30.1382 20.1262 29.5161 19.5041ZM18.6498 19.7944C18.1936 20.2506 17.4471 20.2506 16.9908 19.7944C16.5346 19.3382 16.5346 18.5916 16.9908 18.1354L21.2627 13.8636C21.7189 13.4073 22.4655 13.4073 22.9217 13.8636C23.129 14.0709 23.2535 14.4027 23.2535 14.6931C23.2535 15.0248 23.129 15.3152 22.9217 15.5225L18.6498 19.7944ZM22.2166 22.3658C21.7604 22.822 21.0139 22.822 20.5576 22.3658C20.1014 21.9096 20.1014 21.163 20.5576 20.7068L23.8341 17.4304C24.083 17.1815 24.3733 17.0986 24.6636 17.0986C24.9539 17.0986 25.2857 17.223 25.4931 17.4304C25.9493 17.8866 25.9493 18.6331 25.4931 19.0893L22.2166 22.3658ZM28.106 22.6146L25.7005 25.0202C25.2442 25.4764 24.4977 25.4764 24.0415 25.0202C23.5853 24.5639 23.5853 23.8174 24.0415 23.3612L26.447 20.9557C26.9032 20.4995 27.6497 20.4995 28.106 20.9557C28.3133 21.163 28.4378 21.4948 28.4378 21.7852C28.4792 22.0755 28.3548 22.3658 28.106 22.6146Z" fill="black"/>
<path d="M9.84988 4.72807C10.389 4.72807 10.8453 4.27185 10.8453 3.73269V0.995383C10.8453 0.456217 10.389 0 9.84988 0C9.31071 0 8.85449 0.456217 8.85449 0.995383V3.73269C8.85449 4.27185 9.31071 4.72807 9.84988 4.72807Z" fill="black"/>
<path d="M4.83276 6.17062C5.04013 6.37799 5.28898 6.46094 5.53783 6.46094C5.78667 6.46094 6.03552 6.37799 6.24289 6.17062C6.61616 5.79735 6.61616 5.17524 6.24289 4.76049L4.29359 2.8112C3.92033 2.43793 3.25674 2.43793 2.88347 2.8112C2.5102 3.18447 2.5102 3.80659 2.88347 4.22133L4.83276 6.17062Z" fill="black"/>
<path d="M14.1754 6.46094C14.4243 6.46094 14.6731 6.37799 14.8805 6.17062L16.8298 4.22133C17.2031 3.84806 17.2031 3.22594 16.8298 2.8112C16.4565 2.43793 15.7929 2.43793 15.4197 2.8112L13.4704 4.76049C13.0971 5.13376 13.0971 5.75588 13.4704 6.17062C13.6778 6.37799 13.9266 6.46094 14.1754 6.46094Z" fill="black"/>
</svg>
