<svg width="326" height="288" viewBox="0 0 326 288" fill="none" xmlns="http://www.w3.org/2000/svg">
<path d="M9.70312 43.5781H72.0394" stroke="#E74C3C" stroke-width="17.6" stroke-miterlimit="10" stroke-linecap="round"/>
<path d="M183.297 43.5781H316.295" stroke="#E74C3C" stroke-width="17.6" stroke-miterlimit="10" stroke-linecap="round"/>
<path d="M127.367 77.3895C146.278 77.3895 161.608 62.059 161.608 43.1479C161.608 24.2367 146.278 8.90625 127.367 8.90625C108.456 8.90625 93.125 24.2367 93.125 43.1479C93.125 62.059 108.456 77.3895 127.367 77.3895Z" stroke="#E74C3C" stroke-width="17.6" stroke-miterlimit="10" stroke-linecap="round"/>
<path d="M316.243 143.625H253.906" stroke="#E74C3C" stroke-width="17.6" stroke-miterlimit="10" stroke-linecap="round"/>
<path d="M142.701 143.625H9.70312" stroke="#E74C3C" stroke-width="17.6" stroke-miterlimit="10" stroke-linecap="round"/>
<path d="M198.429 177.397C217.34 177.397 232.671 162.067 232.671 143.156C232.671 124.245 217.34 108.914 198.429 108.914C179.518 108.914 164.188 124.245 164.188 143.156C164.188 162.067 179.518 177.397 198.429 177.397Z" stroke="#E74C3C" stroke-width="17.6" stroke-miterlimit="10" stroke-linecap="round"/>
<path d="M315.976 244.648H209.875" stroke="#E74C3C" stroke-width="17.6" stroke-miterlimit="10" stroke-linecap="round"/>
<path d="M98.9408 244.648H9.70312" stroke="#E74C3C" stroke-width="17.6" stroke-miterlimit="10" stroke-linecap="round"/>
<path d="M154.984 278.897C173.895 278.897 189.225 263.567 189.225 244.656C189.225 225.745 173.895 210.414 154.984 210.414C136.073 210.414 120.742 225.745 120.742 244.656C120.742 263.567 136.073 278.897 154.984 278.897Z" stroke="#E74C3C" stroke-width="17.6" stroke-miterlimit="10" stroke-linecap="round"/>
</svg>
