<svg width="141" height="142" viewBox="0 0 141 142" fill="none" xmlns="http://www.w3.org/2000/svg">
<path d="M97.6973 43.4193C96.794 42.527 95.4868 42.1855 94.2531 42.5564C87.2655 44.6787 79.0552 45.8097 70.507 45.8097C61.9589 45.8097 53.7486 44.6787 46.761 42.5564C45.5419 42.1855 44.22 42.5123 43.3167 43.4193C42.4098 44.3226 42.083 45.6444 42.4539 46.8635C44.5762 53.8511 45.7071 62.0614 45.7071 70.6096C45.7071 79.1577 44.5762 87.368 42.4539 94.3556C42.083 95.5747 42.4098 96.8965 43.3167 97.7998C44.22 98.7068 45.5419 99.0336 46.761 98.6627C53.7486 96.5404 61.9589 95.4094 70.507 95.4094C79.0552 95.4094 87.2655 96.5404 94.2531 98.6627C94.5799 98.7655 94.9214 98.8096 95.2482 98.8096C96.1551 98.8096 97.029 98.4534 97.6826 97.7998C98.5896 96.8965 98.9164 95.5747 98.5455 94.3556C96.4232 87.368 95.2922 79.1577 95.2922 70.6096C95.2922 62.0614 96.4232 53.8511 98.5455 46.8635C98.9311 45.6444 98.5896 44.3226 97.6973 43.4193ZM90.4564 90.5589C78.0601 87.8711 62.9393 87.8711 50.543 90.5589C51.8943 84.3681 52.5919 77.5714 52.5919 70.6096C52.5919 63.633 51.8943 56.851 50.543 50.6602C62.9393 53.348 78.0601 53.348 90.4564 50.6602C89.1051 56.851 88.4074 63.6477 88.4074 70.6096C88.4221 77.5714 89.1198 84.3681 90.4564 90.5589Z" fill="#E6241D"/>
<mask id="mask0_704_28" style="mask-type:luminance" maskUnits="userSpaceOnUse" x="55" y="102" width="31" height="40">
<path d="M55.9248 102.242H85.0648V141.252H55.9248V102.242Z" fill="white"/>
</mask>
<g mask="url(#mask0_704_28)">
<path d="M72.9272 104.032C71.6347 102.739 69.3508 102.739 68.0583 104.032L57.7293 114.361C56.378 115.712 56.378 117.893 57.7293 119.23C59.0805 120.581 61.2616 120.581 62.5982 119.23L67.0338 114.79V137.707C67.0338 139.609 68.5797 141.151 70.478 141.151C72.3764 141.151 73.9222 139.609 73.9222 137.707V114.79L78.3579 119.23C79.0262 119.898 79.9184 120.24 80.7923 120.24C81.6699 120.24 82.5585 119.898 83.2268 119.23C84.578 117.879 84.578 115.697 83.2268 114.361L72.9272 104.032Z" fill="#E6241D"/>
</g>
<mask id="mask1_704_28" style="mask-type:luminance" maskUnits="userSpaceOnUse" x="55" y="0" width="31" height="40">
<path d="M55.9316 0H85.0717V39.0101H55.9316V0Z" fill="white"/>
</mask>
<g mask="url(#mask1_704_28)">
<path d="M68.066 37.119C68.7049 37.7726 69.5935 38.1288 70.5004 38.1288C71.4074 38.1288 72.296 37.7726 72.9349 37.119L83.2639 26.79C84.6152 25.4388 84.6152 23.2577 83.2639 21.9211C81.9126 20.5699 79.7316 20.5699 78.395 21.9211L73.9594 26.3604V3.44422C73.9594 1.54219 72.4135 0 70.5151 0C68.6168 0 67.0709 1.54219 67.0709 3.44422V26.3604L62.6353 21.9211C61.284 20.5699 59.1029 20.5699 57.7664 21.9211C56.4151 23.2724 56.4151 25.4535 57.7664 26.79L68.066 37.119Z" fill="#E6241D"/>
</g>
<mask id="mask2_704_28" style="mask-type:luminance" maskUnits="userSpaceOnUse" x="0" y="56" width="40" height="30">
<path d="M0 56.0234H39.0101V85.1635H0V56.0234Z" fill="white"/>
</mask>
<g mask="url(#mask2_704_28)">
<path d="M26.79 57.865C25.4388 56.5137 23.2577 56.5137 21.9211 57.865C20.5699 59.2163 20.5699 61.3974 21.9211 62.7339L26.3604 67.1695H3.44422C1.54219 67.1842 0 68.7301 0 70.6285C0 72.5268 1.54219 74.0727 3.44422 74.0727H26.3604L21.9211 78.5083C20.5699 79.8596 20.5699 82.0407 21.9211 83.3772C22.5894 84.0455 23.4817 84.387 24.3556 84.387C25.2332 84.387 26.1218 84.0455 26.79 83.3772L37.119 73.0629C37.7726 72.4093 38.1288 71.5354 38.1288 70.6285C38.1288 69.7215 37.7726 68.8329 37.119 68.194L26.79 57.865Z" fill="#E6241D"/>
</g>
<mask id="mask3_704_28" style="mask-type:luminance" maskUnits="userSpaceOnUse" x="101" y="56" width="40" height="30">
<path d="M101.989 56.0234H140.999V85.1635H101.989V56.0234Z" fill="white"/>
</mask>
<g mask="url(#mask3_704_28)">
<path d="M137.552 67.164H114.636L119.076 62.7284C120.427 61.3772 120.427 59.1961 119.076 57.8595C117.724 56.5229 115.543 56.5082 114.207 57.8595L103.892 68.1885C102.541 69.5398 102.541 71.7208 103.892 73.0574L114.207 83.3717C114.875 84.04 115.764 84.3815 116.641 84.3815C117.515 84.3815 118.407 84.04 119.076 83.3717C120.427 82.0205 120.427 79.8394 119.076 78.5028L114.636 74.0672H137.552C139.455 74.0672 140.997 72.5213 140.997 70.623C140.997 68.7246 139.455 67.164 137.552 67.164Z" fill="#E6241D"/>
</g>
</svg>
