<svg width="100" height="100" viewBox="0 0 100 100" fill="none" xmlns="http://www.w3.org/2000/svg">
<path d="M68.2428 42.5357L85.8809 24.8976L85.8863 24.8919C86.4967 24.2818 87.486 24.2818 88.0963 24.8919L88.096 24.8922L96.8656 33.6614V13.5619C96.8656 13.4873 96.8707 13.414 96.881 13.3421V3.12024L86.6594 3.12051C86.5873 3.13055 86.5143 3.13597 86.4394 3.13597H66.3399L75.1034 11.8995L75.1094 11.9052C75.7197 12.5153 75.7197 13.5046 75.1094 14.115V14.1147L57.4659 31.7585C59.9103 32.7584 62.1059 34.2316 63.9378 36.0635C65.7699 37.8956 67.2432 40.0913 68.2428 42.5357ZM86.9914 28.2062L68.6706 46.5268H68.6709C68.0608 47.1369 67.0715 47.1369 66.4614 46.5268C66.2267 46.2922 66.0824 46.0016 66.0282 45.6981C65.2667 42.853 63.7601 40.3048 61.7286 38.273C59.6697 36.2143 57.0799 34.6947 54.189 33.943L54.5793 32.4353L54.1863 33.9476C53.3513 33.7303 52.85 32.8772 53.0673 32.0422C53.1424 31.7522 53.2946 31.5027 53.4959 31.3095L71.795 13.0098L61.463 2.67807V2.67834C60.8529 2.06799 60.8529 1.07868 61.463 0.468601C61.7682 0.163425 62.168 0.0109696 62.5679 0.0109696H86.2682C86.3247 0.00473046 86.3816 0.00175076 86.4394 0.00175076C86.4855 0.00175076 86.5314 0.00364857 86.5767 0.00744631H98.4281V0.00147923C98.8618 0.00147923 99.2544 0.17834 99.5376 0.463713C99.8229 0.747188 100 1.13972 100 1.57347C100 1.61959 99.9979 1.6657 99.9938 1.71074L99.9936 13.5619H99.9998C99.9998 13.6196 99.9965 13.6769 99.9903 13.733V37.4334C99.9903 38.2963 99.2907 38.9962 98.4281 38.9962C97.993 38.9962 97.5999 38.8182 97.3164 38.5318L86.9914 28.2062Z" fill="#E6241D"/>
<path d="M31.3289 46.5268L13.0085 28.2065L2.68322 38.5318C2.40008 38.8182 2.00685 38.9962 1.57197 38.9962C0.709003 38.9962 0.00943077 38.2963 0.00943077 37.4334V13.7338C0.00317893 13.6774 0 13.6202 0 13.5619V1.57347C0 1.13972 0.17696 0.747188 0.462427 0.463713C0.745562 0.17834 1.13805 0.00147923 1.57197 0.00147923H13.5605C13.6186 0.00147923 13.6759 0.00473046 13.7324 0.0109696H37.4319C37.8318 0.0109696 38.2319 0.163425 38.5368 0.468601C39.1471 1.07868 39.1471 2.06799 38.5368 2.67834V2.67807L28.2048 13.0101L46.5042 31.3095C46.7052 31.5027 46.8574 31.7522 46.9328 32.0422C47.1498 32.8772 46.6488 33.7303 45.8135 33.9476L45.4205 32.4353L45.8111 33.943C42.9199 34.6947 40.3304 36.2143 38.2712 38.273C36.24 40.3048 34.7333 42.853 33.9716 45.6981C33.9174 46.0016 33.7731 46.2922 33.5387 46.5268C32.9283 47.1369 31.939 47.1369 31.3289 46.5268ZM14.119 24.8979L31.7567 42.5357C32.7566 40.0913 34.2301 37.8956 36.0617 36.0635C37.8939 34.2316 40.0898 32.7584 42.5342 31.7585L24.8905 14.115C24.2802 13.5049 24.2802 12.5156 24.8905 11.9052L24.8962 11.8998L33.6599 3.13597H13.5605C13.5023 3.13597 13.445 3.13272 13.3885 3.12648H3.12497V13.3901C3.13124 13.4463 3.13441 13.5038 3.13441 13.5619V33.6614L11.9039 24.8922H11.9036C12.5139 24.2818 13.5032 24.2818 14.1133 24.8922L14.119 24.8979Z" fill="#E6241D"/>
<path d="M68.6706 53.4747L86.9914 71.795L97.3164 61.47C97.5999 61.1833 97.993 61.0056 98.4281 61.0056C99.2907 61.0056 99.9903 61.7052 99.9903 62.5678V86.2676C99.9968 86.3241 100 86.3815 100 86.4394V98.428C100 98.8617 99.8229 99.2545 99.5376 99.5378C99.2544 99.8228 98.8618 100 98.4281 100H86.4394C86.3814 100 86.3241 99.9967 86.2677 99.9905H62.5679V99.9903C62.168 99.9903 61.7682 99.8381 61.463 99.5329C60.8529 98.9228 60.8529 97.9332 61.463 97.3231L71.795 86.9913L53.4959 68.6919C53.2946 68.4988 53.1424 68.2492 53.0673 67.9593C52.85 67.124 53.3513 66.2712 54.1863 66.0539L54.5793 67.5662L54.189 66.0588C57.0802 65.3068 59.6697 63.7874 61.7286 61.7285C63.7601 59.6967 65.2667 57.1484 66.0282 54.3034C66.0824 53.9998 66.2267 53.7093 66.4614 53.4747C67.0715 52.8646 68.0608 52.8646 68.6709 53.4747H68.6706ZM85.8809 75.1036L68.2428 57.4658C67.2432 59.9102 65.7699 62.1058 63.9381 63.9377C62.1059 65.7699 59.9103 67.2431 57.4659 68.243L75.1094 85.8865C75.7197 86.4966 75.7197 87.4862 75.1094 88.0962L75.1034 88.1016L66.3399 96.8655H86.4394C86.4975 96.8655 86.555 96.8688 86.6114 96.875H96.8748V86.6114C96.8688 86.5549 96.8656 86.4977 96.8656 86.4394V66.3401L88.096 75.1093L88.0963 75.1096C87.486 75.7197 86.4967 75.7197 85.8863 75.1096L85.8809 75.1036Z" fill="#E6241D"/>
<path d="M31.7567 57.4658L14.119 75.1036L14.1133 75.1096C13.5032 75.7197 12.5139 75.7197 11.9036 75.1096L11.9039 75.1093L3.13441 66.3401V86.4394C3.13441 86.4977 3.13124 86.5549 3.12497 86.6114V96.875H13.3885C13.445 96.8688 13.5023 96.8655 13.5605 96.8655H33.6599L24.8962 88.1016L24.8905 88.0962C24.2802 87.4862 24.2802 86.4966 24.8905 85.8865L42.5342 68.243C40.0898 67.2431 37.8939 65.7699 36.0617 63.9377C34.2301 62.1058 32.7566 59.9102 31.7567 57.4658ZM13.0085 71.795L31.3289 53.4747C31.939 52.8646 32.9283 52.8646 33.5387 53.4747C33.7731 53.7093 33.9174 53.9998 33.9716 54.3034C34.7333 57.1484 36.24 59.6967 38.2712 61.7285C40.3304 63.7874 42.9199 65.3068 45.8111 66.0588L45.4205 67.5662L45.8135 66.0539C46.6488 66.2712 47.1498 67.124 46.9328 67.9593C46.8574 68.2492 46.7052 68.4988 46.5042 68.6919L28.2048 86.9913L38.5368 97.3231C39.1471 97.9332 39.1471 98.9228 38.5368 99.5329C38.2319 99.8381 37.8318 99.9903 37.4319 99.9903V99.9905H13.7324C13.6759 99.9967 13.6186 100 13.5605 100H1.57197C1.13805 100 0.745562 99.8228 0.462427 99.5378C0.17696 99.2545 0 98.8617 0 98.428V86.4394C0 86.3815 0.00317893 86.3241 0.00943077 86.2676V62.5678C0.00943077 61.7052 0.709003 61.0056 1.57197 61.0056C2.00685 61.0056 2.40008 61.1833 2.68322 61.47L13.0085 71.795Z" fill="#E6241D"/>
</svg>
