<?xml version="1.0" encoding="utf-8"?>
<!-- Svg Vector Icons : http://www.onlinewebfonts.com/icon -->
<!DOCTYPE svg PUBLIC "-//W3C//DTD SVG 1.1//EN" "http://www.w3.org/Graphics/SVG/1.1/DTD/svg11.dtd">
<svg version="1.1" xmlns="http://www.w3.org/2000/svg" xmlns:xlink="http://www.w3.org/1999/xlink" x="0px" y="0px" viewBox="0 0 256 256" enable-background="new 0 0 256 256" xml:space="preserve">
<metadata> Svg Vector Icons : http://www.onlinewebfonts.com/icon </metadata>
<g><g><path fill="#000000" d="M223.5,77.8h-191C20.1,77.8,10,67.7,10,55.3c0-12.4,10.1-22.5,22.5-22.5h191c12.4,0,22.5,10.1,22.5,22.5C246,67.7,235.9,77.8,223.5,77.8z M32.5,39.1c-8.9,0-16.2,7.3-16.2,16.2c0,8.9,7.3,16.2,16.2,16.2h191c8.9,0,16.2-7.3,16.2-16.2c0-8.9-7.3-16.2-16.2-16.2H32.5z"/><path fill="#000000" d="M184.3,150.5H32.5C20.1,150.5,10,140.4,10,128s10.1-22.5,22.5-22.5h151.8c12.4,0,22.5,10.1,22.5,22.5S196.7,150.5,184.3,150.5z M32.5,111.8c-8.9,0-16.2,7.3-16.2,16.2c0,8.9,7.3,16.2,16.2,16.2h151.8c8.9,0,16.2-7.3,16.2-16.2c0-8.9-7.3-16.2-16.2-16.2H32.5z"/><path fill="#000000" d="M145.1,223.2H32.5c-12.4,0-22.5-10.1-22.5-22.5c0-12.4,10.1-22.5,22.5-22.5h112.6c12.4,0,22.5,10.1,22.5,22.5C167.6,213.2,157.5,223.2,145.1,223.2z M32.5,184.6c-8.9,0-16.2,7.3-16.2,16.2c0,8.9,7.3,16.2,16.2,16.2h112.6c8.9,0,16.2-7.3,16.2-16.2c0-8.9-7.2-16.2-16.2-16.2H32.5z"/></g></g>
</svg>