<svg xmlns="http://www.w3.org/2000/svg" xmlns:xlink="http://www.w3.org/1999/xlink" width="496" zoomAndPan="magnify" viewBox="0 0 372 172.499995" height="230" preserveAspectRatio="xMidYMid meet" version="1.0"><defs><g/><clipPath id="fee6b29370"><path d="M 120 4.195312 L 177.066406 4.195312 L 177.066406 47 L 120 47 Z M 120 4.195312 " clip-rule="nonzero"/></clipPath><clipPath id="7313389ef6"><path d="M 0.578125 31 L 139 31 L 139 126.839844 L 0.578125 126.839844 Z M 0.578125 31 " clip-rule="nonzero"/></clipPath></defs><g fill="#183d4c" fill-opacity="1"><g transform="translate(110.720072, 129.342655)"><g><path d="M 51.84375 -31.96875 L 51.84375 -39.625 C 51.84375 -52.25 51.21875 -60.21875 49.96875 -63.53125 C 48.59375 -67.320312 46.628906 -69.664062 44.078125 -70.5625 C 42.628906 -71.113281 40.867188 -71.390625 38.796875 -71.390625 C 36.734375 -71.390625 34.957031 -71.113281 33.46875 -70.5625 C 31.988281 -70.007812 30.765625 -69.039062 29.796875 -67.65625 C 28.828125 -66.28125 28.050781 -64.832031 27.46875 -63.3125 C 26.882812 -61.800781 26.421875 -59.664062 26.078125 -56.90625 C 25.660156 -52.90625 25.453125 -47.007812 25.453125 -39.21875 L 25.453125 -31.765625 C 25.453125 -23.347656 25.78125 -17.363281 26.4375 -13.8125 C 27.09375 -10.257812 27.90625 -7.722656 28.875 -6.203125 C 31.007812 -2.828125 34.316406 -1.140625 38.796875 -1.140625 C 44.242188 -1.140625 47.78125 -3.429688 49.40625 -8.015625 C 51.03125 -12.609375 51.84375 -20.59375 51.84375 -31.96875 Z M 38.59375 1.03125 C 27.070312 1.03125 18.46875 -2.085938 12.78125 -8.328125 C 7.09375 -14.566406 4.25 -23.601562 4.25 -35.4375 C 4.25 -47.269531 7.300781 -56.582031 13.40625 -63.375 C 19.507812 -70.164062 28.144531 -73.5625 39.3125 -73.5625 C 50.488281 -73.5625 58.921875 -70.335938 64.609375 -63.890625 C 70.304688 -57.441406 73.15625 -48.285156 73.15625 -36.421875 C 73.15625 -24.554688 70.273438 -15.347656 64.515625 -8.796875 C 58.753906 -2.242188 50.113281 1.03125 38.59375 1.03125 Z M 38.59375 1.03125 "/></g></g></g><g fill="#183d4c" fill-opacity="1"><g transform="translate(188.112023, 129.342655)"><g><path d="M 2.59375 -72.421875 L 34.140625 -72.421875 L 34.140625 -70.46875 L 28.453125 -70.46875 L 28.453125 -37.765625 L 29.28125 -37.96875 L 58.453125 -70.46875 L 50.28125 -70.46875 L 50.28125 -72.421875 L 68.390625 -72.421875 L 68.390625 -70.46875 L 62.1875 -70.46875 L 44.390625 -50.59375 L 69.21875 -1.96875 L 74.8125 -1.96875 L 74.8125 0 L 41.59375 0 L 41.59375 -1.96875 L 46.453125 -1.96875 L 29.390625 -34.96875 L 28.453125 -34.765625 L 28.453125 -1.96875 L 34.140625 -1.96875 L 34.140625 0 L 2.59375 0 L 2.59375 -1.96875 L 8.28125 -1.96875 L 8.28125 -70.46875 L 2.59375 -70.46875 Z M 2.59375 -72.421875 "/></g></g></g><g fill="#183d4c" fill-opacity="1"><g transform="translate(264.05546, 129.342655)"><g><path d="M 2.59375 -72.421875 L 34.140625 -72.421875 L 34.140625 -70.46875 L 28.453125 -70.46875 L 28.453125 -1.96875 L 34.140625 -1.96875 L 34.140625 0 L 2.59375 0 L 2.59375 -1.96875 L 8.28125 -1.96875 L 8.28125 -70.46875 L 2.59375 -70.46875 Z M 2.59375 -72.421875 "/></g></g></g><g fill="#183d4c" fill-opacity="1"><g transform="translate(300.785591, 129.342655)"><g><path d="M 65.8125 -72.421875 L 66.84375 -46.453125 L 64.875 -46.453125 C 61.84375 -55.628906 59.148438 -61.890625 56.796875 -65.234375 C 54.453125 -68.578125 51.078125 -70.25 46.671875 -70.25 L 45.421875 -70.25 L 45.421875 -2.171875 L 54.21875 -2.171875 L 54.21875 0 L 16.453125 0 L 16.453125 -2.171875 L 25.25 -2.171875 L 25.25 -70.25 L 23.90625 -70.25 C 19.488281 -70.25 16.070312 -68.507812 13.65625 -65.03125 C 11.238281 -61.550781 8.582031 -55.359375 5.6875 -46.453125 L 3.71875 -46.453125 L 4.765625 -72.421875 Z M 65.8125 -72.421875 "/></g></g></g><g fill="#183d4c" fill-opacity="1"><g transform="translate(104.835678, 153.567454)"><g><path d="M 8.109375 0 L 5.1875 0 L 5.1875 -5.8125 L 0.078125 -14.796875 L 3.203125 -14.796875 L 6.578125 -8.96875 L 6.84375 -8.96875 L 10.140625 -14.796875 L 13.21875 -14.796875 L 8.109375 -5.8125 Z M 8.109375 0 "/></g></g></g><g fill="#183d4c" fill-opacity="1"><g transform="translate(118.122546, 153.567454)"><g><path d="M 6.484375 0.21875 C 5.390625 0.21875 4.429688 -0.00390625 3.609375 -0.453125 C 2.785156 -0.910156 2.144531 -1.570312 1.6875 -2.4375 C 1.226562 -3.300781 1 -4.347656 1 -5.578125 C 1 -6.804688 1.226562 -7.851562 1.6875 -8.71875 C 2.144531 -9.59375 2.785156 -10.253906 3.609375 -10.703125 C 4.429688 -11.148438 5.390625 -11.375 6.484375 -11.375 C 7.578125 -11.375 8.535156 -11.148438 9.359375 -10.703125 C 10.191406 -10.253906 10.835938 -9.59375 11.296875 -8.71875 C 11.753906 -7.851562 11.984375 -6.804688 11.984375 -5.578125 C 11.984375 -4.347656 11.753906 -3.300781 11.296875 -2.4375 C 10.835938 -1.570312 10.191406 -0.910156 9.359375 -0.453125 C 8.535156 -0.00390625 7.578125 0.21875 6.484375 0.21875 Z M 6.484375 -2.171875 C 8.210938 -2.171875 9.078125 -3.304688 9.078125 -5.578125 C 9.078125 -6.753906 8.851562 -7.617188 8.40625 -8.171875 C 7.96875 -8.722656 7.328125 -9 6.484375 -9 C 4.753906 -9 3.890625 -7.859375 3.890625 -5.578125 C 3.890625 -3.304688 4.753906 -2.171875 6.484375 -2.171875 Z M 6.484375 -2.171875 "/></g></g></g><g fill="#183d4c" fill-opacity="1"><g transform="translate(131.095711, 153.567454)"><g><path d="M 5.109375 0.21875 C 3.859375 0.21875 2.929688 -0.125 2.328125 -0.8125 C 1.734375 -1.5 1.4375 -2.484375 1.4375 -3.765625 L 1.4375 -11.15625 L 4.234375 -11.15625 L 4.234375 -4.125 C 4.234375 -3.4375 4.378906 -2.9375 4.671875 -2.625 C 4.972656 -2.3125 5.429688 -2.15625 6.046875 -2.15625 C 6.816406 -2.15625 7.414062 -2.410156 7.84375 -2.921875 C 8.28125 -3.429688 8.5 -4.234375 8.5 -5.328125 L 8.5 -11.15625 L 11.296875 -11.15625 L 11.296875 0 L 8.609375 0 L 8.609375 -1.640625 L 8.390625 -1.6875 C 8.035156 -1.050781 7.597656 -0.570312 7.078125 -0.25 C 6.566406 0.0625 5.910156 0.21875 5.109375 0.21875 Z M 5.109375 0.21875 "/></g></g></g><g fill="#183d4c" fill-opacity="1"><g transform="translate(144.008159, 153.567454)"><g><path d="M 1.609375 0 L 1.609375 -11.15625 L 4.328125 -11.15625 L 4.328125 -9.5 L 4.546875 -9.453125 C 4.816406 -10.078125 5.171875 -10.535156 5.609375 -10.828125 C 6.046875 -11.117188 6.578125 -11.265625 7.203125 -11.265625 C 7.835938 -11.265625 8.320312 -11.15625 8.65625 -10.9375 L 8.171875 -8.515625 L 7.96875 -8.484375 C 7.78125 -8.554688 7.601562 -8.609375 7.4375 -8.640625 C 7.269531 -8.671875 7.0625 -8.6875 6.8125 -8.6875 C 6.03125 -8.6875 5.429688 -8.410156 5.015625 -7.859375 C 4.609375 -7.316406 4.40625 -6.4375 4.40625 -5.21875 L 4.40625 0 Z M 1.609375 0 "/></g></g></g><g fill="#183d4c" fill-opacity="1"><g transform="translate(152.761504, 153.567454)"><g/></g></g><g fill="#183d4c" fill-opacity="1"><g transform="translate(157.649209, 153.567454)"><g><path d="M 11.859375 -14.796875 L 11.859375 -12.328125 L 7.59375 -12.328125 L 7.59375 0 L 4.671875 0 L 4.671875 -12.328125 L 0.40625 -12.328125 L 0.40625 -14.796875 Z M 11.859375 -14.796875 "/></g></g></g><g fill="#183d4c" fill-opacity="1"><g transform="translate(169.914011, 153.567454)"><g><path d="M 1.609375 0 L 1.609375 -11.15625 L 4.328125 -11.15625 L 4.328125 -9.5 L 4.546875 -9.453125 C 4.816406 -10.078125 5.171875 -10.535156 5.609375 -10.828125 C 6.046875 -11.117188 6.578125 -11.265625 7.203125 -11.265625 C 7.835938 -11.265625 8.320312 -11.15625 8.65625 -10.9375 L 8.171875 -8.515625 L 7.96875 -8.484375 C 7.78125 -8.554688 7.601562 -8.609375 7.4375 -8.640625 C 7.269531 -8.671875 7.0625 -8.6875 6.8125 -8.6875 C 6.03125 -8.6875 5.429688 -8.410156 5.015625 -7.859375 C 4.609375 -7.316406 4.40625 -6.4375 4.40625 -5.21875 L 4.40625 0 Z M 1.609375 0 "/></g></g></g><g fill="#183d4c" fill-opacity="1"><g transform="translate(178.667356, 153.567454)"><g><path d="M 5.109375 0.21875 C 3.859375 0.21875 2.929688 -0.125 2.328125 -0.8125 C 1.734375 -1.5 1.4375 -2.484375 1.4375 -3.765625 L 1.4375 -11.15625 L 4.234375 -11.15625 L 4.234375 -4.125 C 4.234375 -3.4375 4.378906 -2.9375 4.671875 -2.625 C 4.972656 -2.3125 5.429688 -2.15625 6.046875 -2.15625 C 6.816406 -2.15625 7.414062 -2.410156 7.84375 -2.921875 C 8.28125 -3.429688 8.5 -4.234375 8.5 -5.328125 L 8.5 -11.15625 L 11.296875 -11.15625 L 11.296875 0 L 8.609375 0 L 8.609375 -1.640625 L 8.390625 -1.6875 C 8.035156 -1.050781 7.597656 -0.570312 7.078125 -0.25 C 6.566406 0.0625 5.910156 0.21875 5.109375 0.21875 Z M 5.109375 0.21875 "/></g></g></g><g fill="#183d4c" fill-opacity="1"><g transform="translate(191.579804, 153.567454)"><g><path d="M 5.21875 0.21875 C 4.457031 0.21875 3.757812 0.128906 3.125 -0.046875 C 2.488281 -0.234375 1.945312 -0.484375 1.5 -0.796875 C 1.050781 -1.109375 0.71875 -1.46875 0.5 -1.875 L 2.0625 -3.546875 L 2.28125 -3.546875 C 2.644531 -3.046875 3.078125 -2.671875 3.578125 -2.421875 C 4.085938 -2.171875 4.640625 -2.046875 5.234375 -2.046875 C 5.785156 -2.046875 6.195312 -2.144531 6.46875 -2.34375 C 6.75 -2.539062 6.890625 -2.820312 6.890625 -3.1875 C 6.890625 -3.46875 6.789062 -3.703125 6.59375 -3.890625 C 6.394531 -4.085938 6.070312 -4.238281 5.625 -4.34375 L 4.140625 -4.703125 C 3.035156 -4.960938 2.226562 -5.363281 1.71875 -5.90625 C 1.21875 -6.457031 0.96875 -7.148438 0.96875 -7.984375 C 0.96875 -8.679688 1.140625 -9.285156 1.484375 -9.796875 C 1.835938 -10.304688 2.335938 -10.695312 2.984375 -10.96875 C 3.628906 -11.238281 4.378906 -11.375 5.234375 -11.375 C 6.242188 -11.375 7.078125 -11.226562 7.734375 -10.9375 C 8.398438 -10.644531 8.914062 -10.253906 9.28125 -9.765625 L 7.796875 -8.15625 L 7.59375 -8.15625 C 7.28125 -8.507812 6.925781 -8.765625 6.53125 -8.921875 C 6.144531 -9.085938 5.710938 -9.171875 5.234375 -9.171875 C 4.128906 -9.171875 3.578125 -8.828125 3.578125 -8.140625 C 3.578125 -7.847656 3.679688 -7.609375 3.890625 -7.421875 C 4.097656 -7.242188 4.460938 -7.097656 4.984375 -6.984375 L 6.359375 -6.671875 C 7.484375 -6.429688 8.304688 -6.039062 8.828125 -5.5 C 9.359375 -4.96875 9.625 -4.25 9.625 -3.34375 C 9.625 -2.632812 9.445312 -2.007812 9.09375 -1.46875 C 8.738281 -0.9375 8.226562 -0.519531 7.5625 -0.21875 C 6.90625 0.0703125 6.125 0.21875 5.21875 0.21875 Z M 5.21875 0.21875 "/></g></g></g><g fill="#183d4c" fill-opacity="1"><g transform="translate(201.871308, 153.567454)"><g><path d="M 7.703125 -2.65625 L 8.421875 -0.59375 C 8.117188 -0.34375 7.738281 -0.144531 7.28125 0 C 6.820312 0.144531 6.300781 0.21875 5.71875 0.21875 C 4.519531 0.21875 3.601562 -0.109375 2.96875 -0.765625 C 2.34375 -1.429688 2.03125 -2.390625 2.03125 -3.640625 L 2.03125 -8.9375 L 0.328125 -8.9375 L 0.328125 -11.171875 L 2.03125 -11.171875 L 2.03125 -13.34375 L 4.828125 -13.796875 L 4.828125 -11.171875 L 8 -11.171875 L 8 -8.9375 L 4.828125 -8.9375 L 4.828125 -3.84375 C 4.828125 -3.289062 4.941406 -2.882812 5.171875 -2.625 C 5.410156 -2.375 5.75 -2.25 6.1875 -2.25 C 6.6875 -2.25 7.117188 -2.382812 7.484375 -2.65625 Z M 7.703125 -2.65625 "/></g></g></g><g fill="#183d4c" fill-opacity="1"><g transform="translate(210.543697, 153.567454)"><g><path d="M 11.03125 -4.953125 L 3.859375 -4.953125 C 3.929688 -3.972656 4.203125 -3.265625 4.671875 -2.828125 C 5.148438 -2.390625 5.796875 -2.171875 6.609375 -2.171875 C 7.253906 -2.171875 7.773438 -2.289062 8.171875 -2.53125 C 8.566406 -2.769531 8.890625 -3.128906 9.140625 -3.609375 L 9.34375 -3.609375 L 11.203125 -2.421875 C 10.835938 -1.640625 10.285156 -1.003906 9.546875 -0.515625 C 8.816406 -0.0234375 7.835938 0.21875 6.609375 0.21875 C 5.460938 0.21875 4.46875 0 3.625 -0.4375 C 2.789062 -0.882812 2.144531 -1.539062 1.6875 -2.40625 C 1.226562 -3.269531 1 -4.328125 1 -5.578125 C 1 -6.835938 1.238281 -7.90625 1.71875 -8.78125 C 2.195312 -9.65625 2.84375 -10.304688 3.65625 -10.734375 C 4.476562 -11.160156 5.394531 -11.375 6.40625 -11.375 C 7.988281 -11.375 9.195312 -10.953125 10.03125 -10.109375 C 10.875 -9.273438 11.296875 -8.050781 11.296875 -6.4375 C 11.296875 -5.84375 11.273438 -5.382812 11.234375 -5.0625 Z M 8.625 -6.765625 C 8.59375 -7.609375 8.390625 -8.222656 8.015625 -8.609375 C 7.648438 -9.003906 7.113281 -9.203125 6.40625 -9.203125 C 5 -9.203125 4.171875 -8.390625 3.921875 -6.765625 Z M 8.625 -6.765625 "/></g></g></g><g fill="#183d4c" fill-opacity="1"><g transform="translate(222.676945, 153.567454)"><g><path d="M 5.515625 0.21875 C 4.628906 0.21875 3.847656 0.00390625 3.171875 -0.421875 C 2.492188 -0.859375 1.960938 -1.507812 1.578125 -2.375 C 1.191406 -3.238281 1 -4.304688 1 -5.578125 C 1 -6.847656 1.195312 -7.914062 1.59375 -8.78125 C 1.988281 -9.65625 2.535156 -10.304688 3.234375 -10.734375 C 3.929688 -11.160156 4.738281 -11.375 5.65625 -11.375 C 6.351562 -11.375 6.953125 -11.253906 7.453125 -11.015625 C 7.960938 -10.773438 8.394531 -10.398438 8.75 -9.890625 L 8.96875 -9.9375 L 8.96875 -15.640625 L 11.765625 -15.640625 L 11.765625 0 L 8.96875 0 L 8.96875 -1.453125 L 8.75 -1.484375 C 8.4375 -0.960938 8.007812 -0.546875 7.46875 -0.234375 C 6.9375 0.0664062 6.285156 0.21875 5.515625 0.21875 Z M 6.421875 -2.171875 C 7.210938 -2.171875 7.835938 -2.453125 8.296875 -3.015625 C 8.753906 -3.578125 8.984375 -4.429688 8.984375 -5.578125 C 8.984375 -6.722656 8.753906 -7.578125 8.296875 -8.140625 C 7.835938 -8.710938 7.210938 -9 6.421875 -9 C 5.597656 -9 4.96875 -8.722656 4.53125 -8.171875 C 4.101562 -7.617188 3.890625 -6.753906 3.890625 -5.578125 C 3.890625 -4.398438 4.101562 -3.535156 4.53125 -2.984375 C 4.96875 -2.441406 5.597656 -2.171875 6.421875 -2.171875 Z M 6.421875 -2.171875 "/></g></g></g><g fill="#183d4c" fill-opacity="1"><g transform="translate(236.054889, 153.567454)"><g/></g></g><g fill="#183d4c" fill-opacity="1"><g transform="translate(240.942595, 153.567454)"><g><path d="M 8.796875 0 L 5.265625 0 L 0.265625 -14.796875 L 3.375 -14.796875 L 6.953125 -3.765625 L 7.21875 -3.765625 L 10.75 -14.796875 L 13.78125 -14.796875 Z M 8.796875 0 "/></g></g></g><g fill="#183d4c" fill-opacity="1"><g transform="translate(254.988423, 153.567454)"><g><path d="M 3 -12.5 C 2.5 -12.5 2.085938 -12.648438 1.765625 -12.953125 C 1.453125 -13.265625 1.296875 -13.660156 1.296875 -14.140625 C 1.296875 -14.617188 1.453125 -15.007812 1.765625 -15.3125 C 2.085938 -15.625 2.5 -15.78125 3 -15.78125 C 3.34375 -15.78125 3.644531 -15.707031 3.90625 -15.5625 C 4.164062 -15.425781 4.367188 -15.234375 4.515625 -14.984375 C 4.660156 -14.742188 4.734375 -14.460938 4.734375 -14.140625 C 4.734375 -13.828125 4.660156 -13.546875 4.515625 -13.296875 C 4.367188 -13.046875 4.164062 -12.847656 3.90625 -12.703125 C 3.644531 -12.566406 3.34375 -12.5 3 -12.5 Z M 1.609375 0 L 1.609375 -11.15625 L 4.40625 -11.15625 L 4.40625 0 Z M 1.609375 0 "/></g></g></g><g fill="#183d4c" fill-opacity="1"><g transform="translate(260.999391, 153.567454)"><g><path d="M 5.21875 0.21875 C 4.457031 0.21875 3.757812 0.128906 3.125 -0.046875 C 2.488281 -0.234375 1.945312 -0.484375 1.5 -0.796875 C 1.050781 -1.109375 0.71875 -1.46875 0.5 -1.875 L 2.0625 -3.546875 L 2.28125 -3.546875 C 2.644531 -3.046875 3.078125 -2.671875 3.578125 -2.421875 C 4.085938 -2.171875 4.640625 -2.046875 5.234375 -2.046875 C 5.785156 -2.046875 6.195312 -2.144531 6.46875 -2.34375 C 6.75 -2.539062 6.890625 -2.820312 6.890625 -3.1875 C 6.890625 -3.46875 6.789062 -3.703125 6.59375 -3.890625 C 6.394531 -4.085938 6.070312 -4.238281 5.625 -4.34375 L 4.140625 -4.703125 C 3.035156 -4.960938 2.226562 -5.363281 1.71875 -5.90625 C 1.21875 -6.457031 0.96875 -7.148438 0.96875 -7.984375 C 0.96875 -8.679688 1.140625 -9.285156 1.484375 -9.796875 C 1.835938 -10.304688 2.335938 -10.695312 2.984375 -10.96875 C 3.628906 -11.238281 4.378906 -11.375 5.234375 -11.375 C 6.242188 -11.375 7.078125 -11.226562 7.734375 -10.9375 C 8.398438 -10.644531 8.914062 -10.253906 9.28125 -9.765625 L 7.796875 -8.15625 L 7.59375 -8.15625 C 7.28125 -8.507812 6.925781 -8.765625 6.53125 -8.921875 C 6.144531 -9.085938 5.710938 -9.171875 5.234375 -9.171875 C 4.128906 -9.171875 3.578125 -8.828125 3.578125 -8.140625 C 3.578125 -7.847656 3.679688 -7.609375 3.890625 -7.421875 C 4.097656 -7.242188 4.460938 -7.097656 4.984375 -6.984375 L 6.359375 -6.671875 C 7.484375 -6.429688 8.304688 -6.039062 8.828125 -5.5 C 9.359375 -4.96875 9.625 -4.25 9.625 -3.34375 C 9.625 -2.632812 9.445312 -2.007812 9.09375 -1.46875 C 8.738281 -0.9375 8.226562 -0.519531 7.5625 -0.21875 C 6.90625 0.0703125 6.125 0.21875 5.21875 0.21875 Z M 5.21875 0.21875 "/></g></g></g><g fill="#183d4c" fill-opacity="1"><g transform="translate(271.290895, 153.567454)"><g><path d="M 4.34375 0.21875 C 3.632812 0.21875 3.015625 0.0859375 2.484375 -0.171875 C 1.960938 -0.441406 1.554688 -0.832031 1.265625 -1.34375 C 0.984375 -1.851562 0.84375 -2.460938 0.84375 -3.171875 C 0.84375 -3.835938 0.984375 -4.394531 1.265625 -4.84375 C 1.554688 -5.289062 2 -5.65625 2.59375 -5.9375 C 3.1875 -6.226562 3.960938 -6.453125 4.921875 -6.609375 C 5.585938 -6.710938 6.09375 -6.828125 6.4375 -6.953125 C 6.78125 -7.085938 7.015625 -7.234375 7.140625 -7.390625 C 7.265625 -7.554688 7.328125 -7.765625 7.328125 -8.015625 C 7.328125 -8.367188 7.203125 -8.640625 6.953125 -8.828125 C 6.703125 -9.015625 6.285156 -9.109375 5.703125 -9.109375 C 5.085938 -9.109375 4.5 -8.96875 3.9375 -8.6875 C 3.375 -8.414062 2.890625 -8.054688 2.484375 -7.609375 L 2.28125 -7.609375 L 1.109375 -9.375 C 1.671875 -10 2.359375 -10.488281 3.171875 -10.84375 C 3.992188 -11.195312 4.882812 -11.375 5.84375 -11.375 C 7.320312 -11.375 8.390625 -11.054688 9.046875 -10.421875 C 9.710938 -9.796875 10.046875 -8.910156 10.046875 -7.765625 L 10.046875 -2.90625 C 10.046875 -2.414062 10.265625 -2.171875 10.703125 -2.171875 C 10.867188 -2.171875 11.035156 -2.195312 11.203125 -2.25 L 11.34375 -2.21875 L 11.546875 -0.265625 C 11.390625 -0.160156 11.171875 -0.078125 10.890625 -0.015625 C 10.617188 0.046875 10.316406 0.078125 9.984375 0.078125 C 9.316406 0.078125 8.796875 -0.046875 8.421875 -0.296875 C 8.046875 -0.554688 7.78125 -0.957031 7.625 -1.5 L 7.40625 -1.53125 C 6.851562 -0.363281 5.832031 0.21875 4.34375 0.21875 Z M 5.234375 -1.875 C 5.890625 -1.875 6.410156 -2.09375 6.796875 -2.53125 C 7.179688 -2.96875 7.375 -3.570312 7.375 -4.34375 L 7.375 -5.484375 L 7.1875 -5.53125 C 7.019531 -5.394531 6.796875 -5.28125 6.515625 -5.1875 C 6.242188 -5.09375 5.851562 -5.003906 5.34375 -4.921875 C 4.738281 -4.816406 4.300781 -4.640625 4.03125 -4.390625 C 3.757812 -4.148438 3.625 -3.800781 3.625 -3.34375 C 3.625 -2.863281 3.765625 -2.5 4.046875 -2.25 C 4.335938 -2 4.734375 -1.875 5.234375 -1.875 Z M 5.234375 -1.875 "/></g></g></g><g fill="#183d4c" fill-opacity="1"><g transform="translate(283.059843, 153.567454)"><g/></g></g><g fill="#183d4c" fill-opacity="1"><g transform="translate(287.947548, 153.567454)"><g><path d="M 7.640625 -14.796875 C 8.691406 -14.796875 9.59375 -14.597656 10.34375 -14.203125 C 11.101562 -13.816406 11.675781 -13.273438 12.0625 -12.578125 C 12.445312 -11.878906 12.640625 -11.066406 12.640625 -10.140625 C 12.640625 -9.222656 12.445312 -8.414062 12.0625 -7.71875 C 11.675781 -7.019531 11.101562 -6.476562 10.34375 -6.09375 C 9.59375 -5.707031 8.691406 -5.515625 7.640625 -5.515625 L 4.84375 -5.515625 L 4.84375 0 L 1.921875 0 L 1.921875 -14.796875 Z M 7.25 -7.828125 C 8.875 -7.828125 9.6875 -8.597656 9.6875 -10.140625 C 9.6875 -11.691406 8.875 -12.46875 7.25 -12.46875 L 4.84375 -12.46875 L 4.84375 -7.828125 Z M 7.25 -7.828125 "/></g></g></g><g fill="#183d4c" fill-opacity="1"><g transform="translate(301.467165, 153.567454)"><g><path d="M 4.34375 0.21875 C 3.632812 0.21875 3.015625 0.0859375 2.484375 -0.171875 C 1.960938 -0.441406 1.554688 -0.832031 1.265625 -1.34375 C 0.984375 -1.851562 0.84375 -2.460938 0.84375 -3.171875 C 0.84375 -3.835938 0.984375 -4.394531 1.265625 -4.84375 C 1.554688 -5.289062 2 -5.65625 2.59375 -5.9375 C 3.1875 -6.226562 3.960938 -6.453125 4.921875 -6.609375 C 5.585938 -6.710938 6.09375 -6.828125 6.4375 -6.953125 C 6.78125 -7.085938 7.015625 -7.234375 7.140625 -7.390625 C 7.265625 -7.554688 7.328125 -7.765625 7.328125 -8.015625 C 7.328125 -8.367188 7.203125 -8.640625 6.953125 -8.828125 C 6.703125 -9.015625 6.285156 -9.109375 5.703125 -9.109375 C 5.085938 -9.109375 4.5 -8.96875 3.9375 -8.6875 C 3.375 -8.414062 2.890625 -8.054688 2.484375 -7.609375 L 2.28125 -7.609375 L 1.109375 -9.375 C 1.671875 -10 2.359375 -10.488281 3.171875 -10.84375 C 3.992188 -11.195312 4.882812 -11.375 5.84375 -11.375 C 7.320312 -11.375 8.390625 -11.054688 9.046875 -10.421875 C 9.710938 -9.796875 10.046875 -8.910156 10.046875 -7.765625 L 10.046875 -2.90625 C 10.046875 -2.414062 10.265625 -2.171875 10.703125 -2.171875 C 10.867188 -2.171875 11.035156 -2.195312 11.203125 -2.25 L 11.34375 -2.21875 L 11.546875 -0.265625 C 11.390625 -0.160156 11.171875 -0.078125 10.890625 -0.015625 C 10.617188 0.046875 10.316406 0.078125 9.984375 0.078125 C 9.316406 0.078125 8.796875 -0.046875 8.421875 -0.296875 C 8.046875 -0.554688 7.78125 -0.957031 7.625 -1.5 L 7.40625 -1.53125 C 6.851562 -0.363281 5.832031 0.21875 4.34375 0.21875 Z M 5.234375 -1.875 C 5.890625 -1.875 6.410156 -2.09375 6.796875 -2.53125 C 7.179688 -2.96875 7.375 -3.570312 7.375 -4.34375 L 7.375 -5.484375 L 7.1875 -5.53125 C 7.019531 -5.394531 6.796875 -5.28125 6.515625 -5.1875 C 6.242188 -5.09375 5.851562 -5.003906 5.34375 -4.921875 C 4.738281 -4.816406 4.300781 -4.640625 4.03125 -4.390625 C 3.757812 -4.148438 3.625 -3.800781 3.625 -3.34375 C 3.625 -2.863281 3.765625 -2.5 4.046875 -2.25 C 4.335938 -2 4.734375 -1.875 5.234375 -1.875 Z M 5.234375 -1.875 "/></g></g></g><g fill="#183d4c" fill-opacity="1"><g transform="translate(313.236113, 153.567454)"><g><path d="M 1.609375 0 L 1.609375 -11.15625 L 4.328125 -11.15625 L 4.328125 -9.5 L 4.546875 -9.453125 C 4.816406 -10.078125 5.171875 -10.535156 5.609375 -10.828125 C 6.046875 -11.117188 6.578125 -11.265625 7.203125 -11.265625 C 7.835938 -11.265625 8.320312 -11.15625 8.65625 -10.9375 L 8.171875 -8.515625 L 7.96875 -8.484375 C 7.78125 -8.554688 7.601562 -8.609375 7.4375 -8.640625 C 7.269531 -8.671875 7.0625 -8.6875 6.8125 -8.6875 C 6.03125 -8.6875 5.429688 -8.410156 5.015625 -7.859375 C 4.609375 -7.316406 4.40625 -6.4375 4.40625 -5.21875 L 4.40625 0 Z M 1.609375 0 "/></g></g></g><g fill="#183d4c" fill-opacity="1"><g transform="translate(321.989457, 153.567454)"><g><path d="M 7.703125 -2.65625 L 8.421875 -0.59375 C 8.117188 -0.34375 7.738281 -0.144531 7.28125 0 C 6.820312 0.144531 6.300781 0.21875 5.71875 0.21875 C 4.519531 0.21875 3.601562 -0.109375 2.96875 -0.765625 C 2.34375 -1.429688 2.03125 -2.390625 2.03125 -3.640625 L 2.03125 -8.9375 L 0.328125 -8.9375 L 0.328125 -11.171875 L 2.03125 -11.171875 L 2.03125 -13.34375 L 4.828125 -13.796875 L 4.828125 -11.171875 L 8 -11.171875 L 8 -8.9375 L 4.828125 -8.9375 L 4.828125 -3.84375 C 4.828125 -3.289062 4.941406 -2.882812 5.171875 -2.625 C 5.410156 -2.375 5.75 -2.25 6.1875 -2.25 C 6.6875 -2.25 7.117188 -2.382812 7.484375 -2.65625 Z M 7.703125 -2.65625 "/></g></g></g><g fill="#183d4c" fill-opacity="1"><g transform="translate(330.661846, 153.567454)"><g><path d="M 1.609375 0 L 1.609375 -11.15625 L 4.296875 -11.15625 L 4.296875 -9.515625 L 4.515625 -9.46875 C 5.203125 -10.738281 6.328125 -11.375 7.890625 -11.375 C 9.179688 -11.375 10.128906 -11.019531 10.734375 -10.3125 C 11.335938 -9.613281 11.640625 -8.59375 11.640625 -7.25 L 11.640625 0 L 8.828125 0 L 8.828125 -6.90625 C 8.828125 -7.644531 8.675781 -8.175781 8.375 -8.5 C 8.082031 -8.832031 7.609375 -9 6.953125 -9 C 6.148438 -9 5.523438 -8.738281 5.078125 -8.21875 C 4.628906 -7.707031 4.40625 -6.894531 4.40625 -5.78125 L 4.40625 0 Z M 1.609375 0 "/></g></g></g><g fill="#183d4c" fill-opacity="1"><g transform="translate(343.736205, 153.567454)"><g><path d="M 11.03125 -4.953125 L 3.859375 -4.953125 C 3.929688 -3.972656 4.203125 -3.265625 4.671875 -2.828125 C 5.148438 -2.390625 5.796875 -2.171875 6.609375 -2.171875 C 7.253906 -2.171875 7.773438 -2.289062 8.171875 -2.53125 C 8.566406 -2.769531 8.890625 -3.128906 9.140625 -3.609375 L 9.34375 -3.609375 L 11.203125 -2.421875 C 10.835938 -1.640625 10.285156 -1.003906 9.546875 -0.515625 C 8.816406 -0.0234375 7.835938 0.21875 6.609375 0.21875 C 5.460938 0.21875 4.46875 0 3.625 -0.4375 C 2.789062 -0.882812 2.144531 -1.539062 1.6875 -2.40625 C 1.226562 -3.269531 1 -4.328125 1 -5.578125 C 1 -6.835938 1.238281 -7.90625 1.71875 -8.78125 C 2.195312 -9.65625 2.84375 -10.304688 3.65625 -10.734375 C 4.476562 -11.160156 5.394531 -11.375 6.40625 -11.375 C 7.988281 -11.375 9.195312 -10.953125 10.03125 -10.109375 C 10.875 -9.273438 11.296875 -8.050781 11.296875 -6.4375 C 11.296875 -5.84375 11.273438 -5.382812 11.234375 -5.0625 Z M 8.625 -6.765625 C 8.59375 -7.609375 8.390625 -8.222656 8.015625 -8.609375 C 7.648438 -9.003906 7.113281 -9.203125 6.40625 -9.203125 C 5 -9.203125 4.171875 -8.390625 3.921875 -6.765625 Z M 8.625 -6.765625 "/></g></g></g><g fill="#183d4c" fill-opacity="1"><g transform="translate(355.869454, 153.567454)"><g><path d="M 1.609375 0 L 1.609375 -11.15625 L 4.328125 -11.15625 L 4.328125 -9.5 L 4.546875 -9.453125 C 4.816406 -10.078125 5.171875 -10.535156 5.609375 -10.828125 C 6.046875 -11.117188 6.578125 -11.265625 7.203125 -11.265625 C 7.835938 -11.265625 8.320312 -11.15625 8.65625 -10.9375 L 8.171875 -8.515625 L 7.96875 -8.484375 C 7.78125 -8.554688 7.601562 -8.609375 7.4375 -8.640625 C 7.269531 -8.671875 7.0625 -8.6875 6.8125 -8.6875 C 6.03125 -8.6875 5.429688 -8.410156 5.015625 -7.859375 C 4.609375 -7.316406 4.40625 -6.4375 4.40625 -5.21875 L 4.40625 0 Z M 1.609375 0 "/></g></g></g><g clip-path="url(#fee6b29370)"><path fill="#000000" d="M 120.542969 23.984375 L 140.410156 26 L 166.574219 12.035156 L 142.074219 28.582031 L 142.5 33.953125 L 143.417969 46.222656 L 152.257812 35.652344 L 154.34375 33.105469 L 161.765625 35.828125 L 177.394531 4.253906 Z M 120.542969 23.984375 " fill-opacity="1" fill-rule="nonzero"/></g><path fill="#183d4c" d="M 112.199219 18.859375 L 85.894531 18.859375 L 66.835938 78.75 C 77.476562 71.785156 88.015625 64.394531 98.375 56.972656 Z M 112.199219 18.859375 " fill-opacity="1" fill-rule="nonzero"/><path fill="#183d4c" d="M 38.941406 94.449219 C 44.277344 92.433594 49.511719 89.394531 53.71875 86.953125 C 54.710938 86.351562 55.734375 85.75 56.757812 85.113281 L 35.40625 18.859375 L 8.957031 18.859375 L 36.890625 95.15625 C 37.597656 94.945312 38.269531 94.695312 38.941406 94.449219 Z M 38.941406 94.449219 " fill-opacity="1" fill-rule="nonzero"/><g clip-path="url(#7313389ef6)"><path fill="#183d4c" d="M 65.066406 83.027344 C 61.78125 85.113281 58.421875 87.238281 55.0625 89.214844 C 50.183594 92.082031 45.199219 94.910156 39.894531 96.886719 C 29.535156 100.917969 15.109375 102.015625 9.347656 90.488281 C 5.5625 82.851562 7.15625 73.625 10.691406 66.128906 C 11.007812 65.421875 11.363281 64.75 11.679688 64.078125 C 11.46875 64.21875 11.292969 64.394531 11.078125 64.539062 C 4.679688 69.734375 0.613281 77.796875 0.613281 86.105469 C 0.578125 94.449219 4.855469 102.261719 12.175781 106.46875 C 15.710938 108.519531 19.742188 109.652344 23.808594 109.96875 C 29.820312 110.429688 35.757812 109.296875 41.378906 107.390625 L 48.488281 126.800781 L 72.953125 126.800781 L 91.726562 75.144531 C 98.902344 69.3125 105.871094 63.265625 112.691406 57.007812 C 121.53125 48.839844 130.195312 40.460938 138.253906 31.515625 C 113.894531 48.664062 90.066406 66.871094 65.066406 83.027344 Z M 60.789062 97.59375 Z M 60.789062 97.59375 " fill-opacity="1" fill-rule="nonzero"/></g></svg>